<?xml version="1.0" encoding="UTF-8"?>
<!DOCTYPE svg PUBLIC "-//W3C//DTD SVG 1.1//EN" "http://www.w3.org/Graphics/SVG/1.1/DTD/svg11.dtd">
<!-- Creator: CorelDRAW X8 -->
<svg xmlns="http://www.w3.org/2000/svg" xml:space="preserve" width="135mm" height="30mm" version="1.1" style="shape-rendering:geometricPrecision; text-rendering:geometricPrecision; image-rendering:optimizeQuality; fill-rule:evenodd; clip-rule:evenodd"
viewBox="0 0 13500 3000"
 xmlns:xlink="http://www.w3.org/1999/xlink">
 <defs>
  <style type="text/css">
   <![CDATA[
    .str0 {stroke:#ED3237;stroke-width:18}
    .fil6 {fill:none;fill-rule:nonzero}
    .fil0 {fill:#273843}
    .fil3 {fill:#273843}
    .fil1 {fill:#00C65E}
    .fil4 {fill:#00C65E}
    .fil2 {fill:#FEFEFE;fill-rule:nonzero}
    .fil5 {fill:#273843;fill-rule:nonzero}
   ]]>
  </style>
   <clipPath id="id0">
    <rect x="216" y="973" width="877" height="1078"/>
   </clipPath>
 </defs>
 <g id="Camada_x0020_1">
  <metadata id="CorelCorpID_0Corel-Layer"/>
  <g id="_2538212635344">
   <path class="fil0" d="M1171 2187l93 -194 -380 0c-73,0 -141,-39 -178,-103 -37,-63 -37,-142 0,-205 37,-64 105,-103 178,-103l380 0 0 -194 -380 0c-143,0 -275,76 -346,200 -72,123 -72,276 0,400 71,123 203,199 346,199l287 0z"/>
   <path class="fil0" d="M1591 1449l-353 738 215 0 235 -490 235 490 216 0 -354 -738c-18,-38 -55,-61 -97,-61 -41,0 -79,23 -97,61z"/>
   <path class="fil0" d="M2173 1388l0 692c0,29 12,56 32,76 20,20 47,31 76,31l582 0 0 -194 -483 0 0 -605 -207 0z"/>
   <path class="fil0" d="M3130 1388l0 692c0,29 11,56 31,76 20,20 47,31 76,31l582 0 0 -194 -482 0 0 -605 -207 0z"/>
   <path class="fil0" d="M3886 1495l0 585c0,29 12,56 32,76 20,20 47,31 76,31l582 0 0 -194 -483 0 0 -108 483 0 0 -97c0,0 0,0 0,0 0,0 0,-1 0,-1l0 -97 -483 0 0 -108 483 0 0 -194 -582 0c-29,0 -56,11 -76,31 -20,20 -32,47 -32,76z"/>
   <path class="fil1" d="M4611 1388l353 739c18,37 56,60 97,60 41,0 79,-23 97,-60l354 -739 -216 0 -235 490 -235 -490 -215 0z"/>
   <path class="fil0" d="M5546 1495l0 585c0,29 12,56 32,76 20,20 47,31 76,31l582 0 0 -194 -483 0 0 -108 483 0 0 -195 -483 0 0 -108 483 0 0 -194 -582 0c-29,0 -56,11 -76,31 -20,20 -32,47 -32,76z"/>
  </g>
  <path class="fil2" d="M384 2130c0,0 0,0 0,0 0,1 1,0 1,0 0,0 0,0 0,0 0,-1 -1,0 -1,0z"/>
  <path class="fil2" d="M1358 1276c1,0 1,0 1,0 0,0 0,-1 0,-1 -1,0 -1,1 -1,1z"/>
  <g id="_2538329738352">
   <path class="fil3" d="M8014 749c-83,71 -116,39 -222,10 39,209 286,505 476,635 37,25 68,34 84,75 -42,49 -148,59 -232,50 -93,-10 -153,-47 -236,-70 23,65 110,188 151,243 284,381 601,404 661,525 -58,121 -518,258 -678,289 213,7 473,-90 649,-185 279,-151 -144,-287 -306,-415 -97,-76 -230,-200 -287,-306 117,12 271,8 335,-57 35,-35 36,-103 2,-145 -20,-24 -401,-254 -508,-540 61,-24 171,-26 164,-114 -4,-53 -79,-85 -150,-152 -170,-161 -159,-246 -229,-355 28,276 307,473 326,512zm-2939 2105c125,-92 138,-138 345,-221 508,-205 987,-91 1484,59 348,105 639,179 1038,169 283,-7 726,-86 929,-202 -17,2 -325,81 -459,101 -598,90 -991,-4 -1550,-170 -345,-102 -655,-173 -1032,-123 -336,45 -619,199 -755,387zm2539 -2609c-38,52 -73,135 -114,192 -45,62 -98,127 -144,170 -38,37 -140,94 -139,166 2,94 162,83 247,81 -95,313 -791,577 -549,709 118,65 288,32 417,23 -49,113 -450,418 -601,513 -90,57 -343,154 -238,290 36,47 350,158 412,180 1141,404 1549,-169 2454,-267 119,-13 241,-13 361,2 65,9 298,77 310,74 -328,-124 -552,-157 -920,-84 -585,117 -1095,415 -1722,319 -152,-23 -294,-69 -436,-118 -66,-23 -350,-127 -391,-160 5,-53 64,-70 106,-95 200,-116 440,-289 600,-457 34,-36 71,-68 104,-107 45,-53 66,-79 29,-155 -134,-47 -292,54 -462,-27 43,-103 522,-367 607,-699 -84,4 -203,40 -284,-6 -17,-66 97,-130 192,-251 48,-62 139,-202 161,-293z"/>
   <g>
    <polygon class="fil4" points="7656,30 7685,123 7781,126 7704,179 7733,272 7656,212 7578,266 7608,175 7530,116 7626,120 "/>
    <polygon class="fil4" points="7675,409 7692,462 7747,464 7702,495 7719,548 7675,513 7630,544 7647,492 7603,458 7658,461 "/>
    <polygon class="fil4" points="7447,632 7464,685 7519,687 7475,717 7492,770 7447,736 7403,767 7420,715 7375,681 7430,683 "/>
    <polygon class="fil4" points="7854,702 7871,756 7926,758 7882,788 7899,841 7854,807 7810,837 7827,786 7782,752 7837,754 "/>
    <polygon class="fil4" points="7189,906 7206,960 7261,962 7216,992 7234,1045 7189,1011 7145,1041 7162,990 7117,956 7172,958 "/>
    <polygon class="fil4" points="8085,831 8102,884 8157,886 8112,917 8129,970 8085,936 8040,966 8057,914 8013,880 8068,883 "/>
    <polygon class="fil4" points="7231,1360 7248,1413 7303,1415 7259,1445 7276,1498 7231,1464 7187,1495 7204,1443 7159,1409 7214,1411 "/>
    <polygon class="fil4" points="8071,1317 8087,1370 8143,1372 8098,1403 8115,1456 8071,1422 8026,1452 8043,1400 7999,1366 8054,1369 "/>
    <polygon class="fil4" points="7638,1633 7654,1686 7710,1688 7665,1718 7682,1771 7638,1737 7593,1768 7610,1716 7566,1682 7621,1684 "/>
    <polygon class="fil4" points="7188,1973 7205,2027 7260,2029 7215,2059 7232,2112 7188,2078 7143,2108 7160,2057 7116,2023 7171,2025 "/>
    <polygon class="fil4" points="8049,1909 8066,1962 8121,1964 8076,1994 8093,2047 8049,2013 8004,2044 8021,1992 7977,1958 8032,1960 "/>
    <polygon class="fil4" points="7562,2192 7579,2245 7634,2247 7590,2277 7607,2330 7562,2296 7518,2327 7535,2275 7490,2241 7545,2243 "/>
    <polygon class="fil4" points="6957,2227 6974,2280 7029,2282 6985,2313 7002,2366 6957,2331 6913,2362 6930,2310 6885,2276 6941,2279 "/>
    <polygon class="fil4" points="8486,2160 8503,2213 8558,2215 8513,2245 8530,2298 8486,2264 8441,2295 8459,2243 8414,2209 8469,2211 "/>
    <polygon class="fil4" points="6329,2160 6346,2213 6401,2216 6356,2246 6373,2299 6329,2265 6284,2295 6301,2244 6257,2210 6312,2212 "/>
    <polygon class="fil4" points="6928,1635 6945,1689 7000,1691 6956,1721 6973,1774 6928,1740 6884,1770 6901,1719 6856,1685 6911,1687 "/>
    <polygon class="fil4" points="8395,1654 8412,1708 8467,1710 8422,1740 8439,1793 8395,1759 8350,1789 8368,1738 8323,1704 8378,1706 "/>
   </g>
  </g>
  <g id="_2538329737296">
   <g>
    <path class="fil5" d="M9115 1944c0,4 -3,6 -7,9 -8,4 -19,8 -35,13 -15,5 -28,8 -38,10 -16,3 -31,5 -47,7 -16,2 -26,3 -31,3 0,15 1,32 1,48 1,17 1,28 1,35 11,-2 27,-4 48,-8l15 -3c17,-3 31,-8 40,-16 5,-4 8,-5 10,-5 2,0 4,1 5,3 1,2 2,4 2,6 0,5 -6,10 -17,16 -11,6 -23,10 -36,13 -11,2 -23,4 -37,7 -14,2 -23,3 -27,4 1,46 6,80 14,103 8,2 15,4 23,6 7,1 17,1 29,1 12,0 23,-1 34,-4 11,-3 20,-7 26,-12 7,-4 10,-9 10,-13 0,-2 0,-4 -1,-6 -1,-2 -2,-4 -3,-6 -1,-1 -2,-2 -3,-4 -1,-2 -2,-3 -2,-4 0,-3 3,-5 9,-5 5,0 8,2 11,6 4,4 5,8 5,12 0,9 -4,17 -11,25 -8,9 -19,16 -32,21 -13,5 -28,8 -45,8 -16,0 -30,-1 -40,-3 -11,-1 -19,-5 -24,-10 -7,-7 -11,-20 -14,-38 -2,-18 -4,-43 -6,-73 -6,1 -11,3 -18,4 -6,1 -11,1 -14,1 -3,0 -6,-1 -8,-3 -2,-2 -3,-5 -3,-8 0,-1 0,-3 1,-4 1,-2 2,-3 3,-3 9,-1 15,-2 20,-2l17 -2c-1,-35 -2,-63 -3,-85 -4,0 -8,0 -10,0l-19 1c-2,0 -4,-1 -5,-2 -2,-2 -2,-3 -2,-5 0,-6 4,-11 13,-13 3,0 7,-1 12,-2 5,0 8,-1 10,-1 5,-5 11,-8 17,-8 1,0 2,1 3,2 0,2 1,3 1,4 17,-1 39,-3 63,-6 17,-2 42,-7 75,-15l15 -3c3,0 5,1 5,4zm315 252c0,5 -1,8 -3,11 -3,2 -6,3 -10,3 -6,0 -11,-5 -15,-17 -5,-11 -8,-23 -9,-35 -1,-12 -2,-35 -2,-71 0,-5 0,-11 0,-17 0,-6 -1,-11 -1,-15 -8,19 -18,40 -32,64 -13,24 -27,44 -41,61 -13,17 -25,26 -33,26 -9,0 -15,-5 -18,-14 -3,-10 -4,-25 -4,-45 0,-20 2,-41 7,-66 5,-24 11,-43 18,-55 2,-6 5,-10 7,-12 1,-2 4,-3 6,-3 7,0 10,1 10,4 0,1 -1,4 -4,9 -7,14 -14,30 -19,49 -5,19 -8,44 -8,76 0,22 3,32 9,32 7,0 16,-7 28,-23 13,-15 24,-34 36,-56 12,-21 21,-40 28,-56 2,-6 4,-14 7,-25 1,-5 2,-8 2,-10 1,-2 2,-3 3,-3 3,0 6,1 10,3 3,3 5,5 5,8 0,13 1,35 2,67 1,31 2,53 3,65 1,11 3,19 6,25 3,6 6,11 8,14 3,4 4,6 4,6zm290 3c0,4 -1,6 -4,9 -2,2 -5,3 -8,3 -5,0 -7,-2 -7,-7 0,-55 -2,-97 -6,-126 -3,-29 -9,-43 -18,-43 -15,0 -36,51 -64,153l0 0c0,3 -1,6 -3,8 -2,3 -5,4 -9,4 -5,0 -7,-3 -7,-8 0,-10 0,-27 2,-50 1,-25 1,-45 1,-60 0,-20 0,-35 -2,-43 -1,-9 -4,-13 -8,-13 -9,0 -20,17 -35,51 -14,33 -28,73 -44,119l-3 10c-1,3 -3,5 -5,7 -2,2 -4,3 -7,3 -3,0 -5,0 -6,-1 -1,0 -2,-2 -2,-5 -2,-13 -3,-31 -4,-53 0,-6 -1,-15 -1,-28 -3,-46 -5,-77 -7,-93 -3,-16 -4,-25 -4,-27 0,-2 1,-4 4,-7 2,-3 4,-5 6,-5 4,0 7,3 10,9 2,3 3,15 5,36 1,21 3,47 4,78l2 62c15,-46 30,-88 46,-125 16,-38 31,-57 44,-57 9,0 15,7 18,20 3,13 5,32 5,56 0,13 0,32 -1,56l0 19c11,-39 22,-71 33,-97 11,-27 22,-40 33,-40 28,0 42,62 42,185zm344 -93c0,19 -13,34 -37,45 -25,10 -58,17 -98,20 0,18 -1,33 -1,45 0,15 1,29 2,42 1,5 1,8 1,10 0,5 -1,8 -3,11 -2,4 -4,5 -8,5 -5,0 -7,-2 -8,-5 0,-5 -1,-12 -1,-21 0,-10 -1,-20 -1,-29l1 -57c-1,0 -4,0 -8,0 -3,0 -7,1 -10,1 -7,0 -10,-5 -10,-14 0,-6 2,-10 5,-10 1,0 4,1 9,3 6,1 11,2 14,2l0 -115c-2,0 -7,0 -14,-1 -6,-1 -11,-2 -14,-4 -3,-2 -5,-5 -5,-8 0,-7 1,-11 4,-11 3,0 7,2 11,4 1,0 2,1 5,2 3,1 6,2 11,3 2,-5 3,-8 5,-9 1,-2 4,-3 9,-3 5,0 8,1 8,3 0,1 -1,3 -1,5 -1,2 -2,4 -2,6 17,2 36,7 57,14 22,8 40,17 56,29 15,11 23,23 23,37zm-18 2c0,-12 -6,-22 -19,-31 -13,-9 -29,-17 -47,-23 -18,-6 -36,-10 -52,-13 0,16 0,36 1,62 0,26 0,43 0,52 16,0 34,-2 52,-7 19,-4 34,-10 47,-17 12,-7 18,-15 18,-23zm189 -76c0,3 -2,6 -5,9 -4,3 -7,4 -9,4 -2,0 -4,0 -5,-2 -2,-2 -4,-4 -6,-7 -2,-3 -5,-5 -8,-7 -3,-2 -6,-3 -9,-3 -8,0 -19,11 -32,31 -13,21 -26,47 -39,79 0,6 1,14 1,23 1,10 2,17 2,21l1 16c0,4 -1,8 -2,10 -2,3 -5,5 -9,5 -5,0 -8,-6 -9,-19 -2,-12 -2,-30 -3,-54 0,-6 0,-14 0,-25 0,-11 -1,-25 -1,-40 -1,-23 -2,-40 -2,-50 0,-6 4,-9 12,-9 4,0 7,2 8,6 1,4 2,11 2,22l0 65c8,-21 16,-39 26,-54 9,-15 19,-27 28,-35 9,-8 17,-12 24,-12 6,0 12,1 17,4 5,3 10,6 13,10 3,5 5,9 5,12zm169 87c0,11 -3,23 -11,37 -8,14 -19,26 -34,35 -14,10 -30,15 -49,15 -18,0 -31,-5 -40,-15 -9,-10 -13,-22 -13,-37 0,-13 2,-29 7,-48 5,-20 12,-37 20,-52 1,-1 3,-5 7,-12 4,-7 8,-12 13,-16 5,-3 10,-5 16,-5 2,0 4,0 6,2 2,1 3,2 3,4 0,1 0,2 -2,4 -1,2 -3,4 -3,5 -10,11 -17,22 -23,33 -7,13 -13,27 -17,41 -4,13 -7,28 -7,44 0,21 13,32 39,32 13,0 24,-4 34,-11 11,-7 19,-15 25,-25 6,-11 10,-20 10,-28 0,-10 -4,-18 -10,-25 -6,-7 -15,-14 -25,-22 -7,-5 -13,-10 -16,-13 -3,-3 -5,-6 -5,-8 0,-3 3,-6 7,-8 5,-2 10,-3 16,-3 4,0 6,0 7,1 1,0 2,1 2,2 0,0 0,1 -1,3 -1,1 -2,2 -2,3 0,0 3,3 8,8 11,9 20,18 27,27 8,9 11,20 11,32zm-18 -177c0,3 -4,9 -13,19 -8,9 -18,18 -28,26 -10,8 -17,12 -21,12 -2,0 -4,0 -5,-2 -2,-1 -3,-3 -3,-5 0,-1 5,-6 14,-15 10,-9 18,-17 22,-23 5,-6 8,-10 10,-14 3,-5 5,-8 7,-9 1,-2 2,-2 4,-2 3,0 6,1 9,4 3,3 4,6 4,9zm197 205c0,11 -4,23 -14,34 -10,11 -22,20 -38,26 -16,7 -32,10 -49,10 -12,0 -19,-1 -24,-3 -4,-2 -6,-5 -6,-9 0,-2 3,-7 10,-13 6,-6 10,-9 12,-9 4,0 5,1 5,2 0,1 -1,2 -2,3 -1,1 -2,2 -2,3 0,1 2,2 5,3 4,2 8,2 13,2 11,0 22,-2 34,-6 11,-4 21,-10 28,-17 7,-6 11,-14 11,-21 0,-8 -2,-13 -7,-18 -4,-4 -10,-7 -17,-9 -7,-2 -19,-5 -35,-9 -18,-4 -32,-8 -41,-11 -10,-3 -18,-7 -24,-11 -6,-5 -9,-11 -9,-19 0,-12 6,-24 19,-35 13,-11 27,-20 44,-26 16,-6 29,-9 38,-9 9,0 14,3 14,8 0,3 -1,7 -4,11 -2,4 -5,6 -9,6 -2,0 -4,-1 -6,-2 -1,-1 -3,-2 -5,-2 -6,0 -14,2 -26,5 -11,4 -22,9 -31,16 -10,7 -15,16 -15,26 0,6 4,11 12,14 7,3 21,7 41,12 3,0 5,1 7,1 3,1 5,1 7,2 21,5 37,10 48,17 11,6 16,15 16,28zm215 -41c0,19 -13,34 -38,45 -24,10 -57,17 -97,20 -1,18 -1,33 -1,45 0,15 1,29 2,42 1,5 1,8 1,10 0,5 -1,8 -3,11 -2,4 -4,5 -8,5 -5,0 -7,-2 -8,-5 0,-5 -1,-12 -1,-21 0,-10 -1,-20 -1,-29l1 -57c-2,0 -4,0 -8,0 -3,0 -7,1 -11,1 -6,0 -9,-5 -9,-14 0,-6 1,-10 5,-10 1,0 4,1 9,3 6,1 10,2 14,2l0 -115c-2,0 -7,0 -14,-1 -6,-1 -11,-2 -14,-4 -4,-2 -5,-5 -5,-8 0,-7 1,-11 4,-11 3,0 7,2 11,4 0,0 2,1 5,2 2,1 6,2 11,3 2,-5 3,-8 5,-9 1,-2 4,-3 9,-3 5,0 8,1 8,3 0,1 -1,3 -2,5 0,2 -1,4 -1,6 17,2 36,7 57,14 21,8 40,17 55,29 16,11 24,23 24,37zm-18 2c0,-12 -6,-22 -19,-31 -13,-9 -29,-17 -47,-23 -18,-6 -36,-10 -53,-13 1,16 1,36 2,62 0,26 0,43 0,52 16,0 34,-2 52,-7 18,-4 34,-10 46,-17 13,-7 19,-15 19,-23zm203 -8c2,0 3,2 3,6 0,5 -4,15 -11,32 -7,17 -18,32 -33,46 -14,14 -32,21 -53,21 -17,0 -32,-5 -43,-16 -12,-11 -18,-28 -18,-50 0,-21 5,-42 15,-63 10,-21 22,-38 38,-51 16,-13 32,-19 49,-19 10,0 18,2 25,6 7,5 10,11 10,20 0,9 -5,18 -16,27 -10,9 -24,17 -41,24 -17,7 -35,11 -53,14 -3,13 -5,25 -5,37 0,16 4,28 11,36 8,9 18,13 32,13 21,0 38,-7 51,-22 13,-15 24,-32 32,-50 1,-1 2,-3 3,-6 2,-4 3,-5 4,-5zm-36 -64c0,-4 -2,-8 -7,-10 -4,-2 -9,-4 -15,-4 -10,0 -20,4 -30,10 -9,7 -17,15 -24,25 -6,9 -10,18 -12,25 13,-1 26,-5 39,-11 14,-5 26,-11 35,-18 9,-7 14,-13 14,-17zm210 -4c0,3 -2,6 -5,9 -3,3 -6,4 -9,4 -2,0 -4,0 -5,-2 -2,-2 -4,-4 -6,-7 -2,-3 -5,-5 -8,-7 -3,-2 -6,-3 -9,-3 -8,0 -19,11 -32,31 -13,21 -26,47 -39,79 0,6 1,14 2,23 0,10 1,17 1,21l1 16c0,4 -1,8 -2,10 -2,3 -5,5 -9,5 -5,0 -8,-6 -9,-19 -1,-12 -2,-30 -3,-54 0,-6 0,-14 0,-25 0,-11 -1,-25 -1,-40 -1,-23 -1,-40 -1,-50 0,-6 3,-9 11,-9 5,0 7,2 8,6 1,4 2,11 2,22l0 65c8,-21 17,-39 26,-54 10,-15 19,-27 28,-35 9,-8 17,-12 24,-12 6,0 12,1 17,4 6,3 10,6 13,10 3,5 5,9 5,12zm170 87c0,11 -4,23 -12,37 -8,14 -19,26 -33,35 -15,10 -31,15 -50,15 -18,0 -31,-5 -40,-15 -8,-10 -13,-22 -13,-37 0,-13 3,-29 7,-48 5,-20 12,-37 21,-52 0,-1 2,-5 6,-12 4,-7 9,-12 13,-16 5,-3 10,-5 16,-5 2,0 4,0 7,2 2,1 3,2 3,4 0,1 -1,2 -3,4 -1,2 -2,4 -3,5 -9,11 -17,22 -22,33 -8,13 -14,27 -18,41 -4,13 -6,28 -6,44 0,21 13,32 39,32 12,0 23,-4 33,-11 11,-7 19,-15 25,-25 7,-11 10,-20 10,-28 0,-10 -3,-18 -10,-25 -6,-7 -14,-14 -25,-22 -7,-5 -12,-10 -16,-13 -3,-3 -4,-6 -4,-8 0,-3 2,-6 6,-8 5,-2 10,-3 17,-3 3,0 6,0 7,1 1,0 1,1 1,2 0,0 0,1 -1,3 -1,1 -2,2 -2,3 0,0 3,3 8,8 11,9 20,18 28,27 7,9 11,20 11,32zm317 58c0,2 1,4 3,6 2,2 3,4 3,5 0,4 -1,7 -4,11 -3,5 -5,7 -8,7 -5,0 -8,-3 -11,-9 -2,-5 -3,-12 -3,-20 0,-6 0,-26 1,-58l0 -15c0,-7 -1,-11 -4,-14 -13,21 -24,39 -35,54 -10,15 -24,29 -40,43 -16,13 -33,20 -51,20 -9,0 -15,-3 -20,-9 -5,-5 -7,-12 -7,-21 0,-10 5,-25 15,-44 9,-19 22,-38 37,-57 15,-20 30,-36 45,-48 10,-8 18,-14 24,-16 6,-3 12,-5 16,-5 4,0 9,2 13,4 5,3 9,7 12,12 4,5 5,10 5,16 0,9 -2,17 -7,24l7 -2c3,0 5,4 5,11 1,5 1,13 1,27 1,13 1,24 1,33 1,8 1,17 1,25 1,9 1,16 1,20zm-143 8c14,0 28,-6 42,-17 14,-10 26,-23 36,-38 11,-15 23,-34 36,-56 3,-8 5,-17 5,-26 0,-6 -2,-11 -5,-15 -4,-4 -8,-6 -14,-6 -7,0 -15,4 -26,14 -12,10 -25,24 -38,41 -14,17 -25,34 -34,51 -9,17 -14,30 -14,40 0,8 4,12 12,12zm329 21c0,3 -1,6 -4,9 -3,2 -6,3 -10,3 -3,0 -5,-1 -7,-2 -2,-1 -3,-3 -3,-5 0,-11 1,-28 3,-51 1,-25 2,-46 2,-63 0,-16 0,-29 -1,-39 -1,-10 -3,-15 -7,-15 -9,0 -19,11 -30,34 -11,23 -24,53 -38,91l-6 16c-1,3 -3,5 -5,6 -3,2 -5,3 -8,3 -3,0 -6,0 -7,-1 -1,-1 -1,-2 -2,-5l-3 -33 -6 -59c-2,-23 -4,-43 -7,-60 -1,-5 -1,-8 -1,-10 0,-4 2,-7 5,-10 4,-2 8,-4 12,-4 3,0 5,7 6,20 1,13 3,34 4,63l2 21c2,28 3,45 3,52 1,-1 2,-3 3,-5 0,-2 1,-5 2,-7 15,-38 29,-69 41,-95 13,-25 26,-38 38,-38 8,0 14,7 17,22 3,14 5,32 6,54 1,25 1,61 1,108z"/>
    <path class="fil5" d="M12018 2119c0,11 -4,23 -11,37 -8,14 -19,26 -34,35 -14,10 -30,15 -49,15 -18,0 -31,-5 -40,-15 -9,-10 -13,-22 -13,-37 0,-13 2,-29 7,-48 5,-20 11,-37 20,-52 1,-1 3,-5 7,-12 4,-7 8,-12 13,-16 5,-3 10,-5 15,-5 3,0 5,0 7,2 2,1 3,2 3,4 0,1 -1,2 -2,4 -2,2 -3,4 -3,5 -10,11 -17,22 -23,33 -7,13 -13,27 -17,41 -5,13 -7,28 -7,44 0,21 13,32 39,32 12,0 24,-4 34,-11 11,-7 19,-15 25,-25 6,-11 9,-20 9,-28 0,-10 -3,-18 -9,-25 -6,-7 -15,-14 -25,-22 -8,-5 -13,-10 -16,-13 -3,-3 -5,-6 -5,-8 0,-3 3,-6 7,-8 5,-2 10,-3 16,-3 4,0 6,0 7,1 1,0 2,1 2,2 0,0 -1,1 -2,3 0,1 -1,2 -1,3 0,0 3,3 8,8 11,9 20,18 27,27 8,9 11,20 11,32zm289 87c0,3 -1,6 -4,9 -3,2 -6,3 -10,3 -3,0 -5,-1 -7,-2 -2,-1 -3,-3 -3,-5 0,-11 1,-28 3,-51 1,-25 2,-46 2,-63 0,-16 0,-29 -1,-39 -1,-10 -3,-15 -7,-15 -9,0 -19,11 -30,34 -11,23 -24,53 -38,91l-6 16c-1,3 -3,5 -5,6 -3,2 -5,3 -8,3 -3,0 -6,0 -7,-1 -1,-1 -1,-2 -2,-5l-3 -33 -6 -59c-2,-23 -4,-43 -7,-60 -1,-5 -1,-8 -1,-10 0,-4 2,-7 5,-10 4,-2 8,-4 12,-4 3,0 5,7 6,20 1,13 3,34 4,63l2 21c2,28 3,45 3,52 1,-1 2,-3 3,-5 0,-2 1,-5 2,-7 15,-38 29,-69 41,-95 13,-25 26,-38 38,-38 8,0 14,7 17,22 3,14 5,32 6,54 0,25 1,61 1,108zm188 -87c0,11 -4,23 -12,37 -7,14 -18,26 -33,35 -14,10 -31,15 -49,15 -18,0 -31,-5 -40,-15 -9,-10 -13,-22 -13,-37 0,-13 2,-29 7,-48 5,-20 11,-37 20,-52 1,-1 3,-5 7,-12 4,-7 8,-12 13,-16 5,-3 10,-5 15,-5 3,0 5,0 7,2 2,1 3,2 3,4 0,1 -1,2 -2,4 -2,2 -3,4 -4,5 -9,11 -16,22 -22,33 -7,13 -13,27 -18,41 -4,13 -6,28 -6,44 0,21 13,32 39,32 12,0 24,-4 34,-11 10,-7 19,-15 25,-25 6,-11 9,-20 9,-28 0,-10 -3,-18 -9,-25 -6,-7 -15,-14 -26,-22 -7,-5 -12,-10 -15,-13 -3,-3 -5,-6 -5,-8 0,-3 2,-6 7,-8 5,-2 10,-3 16,-3 4,0 6,0 7,1 1,0 2,1 2,2 0,0 -1,1 -2,3 -1,1 -1,2 -1,3 0,0 3,3 8,8 11,9 20,18 27,27 8,9 11,20 11,32zm232 -121c0,1 -1,3 -5,5 -4,3 -6,4 -7,6 -14,15 -27,38 -39,68 -12,30 -22,62 -29,97 -1,4 -2,12 -4,24l-2 14c-1,5 -3,8 -6,10 -2,3 -7,4 -14,4 -2,0 -6,-8 -14,-24 -8,-17 -16,-34 -25,-53l-17 -39c-11,-23 -20,-41 -27,-54 -7,-13 -12,-19 -15,-19 -1,0 -2,1 -3,2 0,1 -1,2 -2,2 -1,0 -3,-1 -3,-2 -1,-1 -2,-2 -2,-4 0,-3 2,-8 6,-13 4,-6 8,-9 12,-9 2,0 4,1 6,2 1,1 2,2 3,3 1,2 2,3 3,4 6,8 17,29 33,64 6,12 20,44 43,95l9 22c0,-7 1,-19 4,-35 6,-31 15,-63 27,-95 12,-31 26,-57 42,-78 3,-5 5,-8 8,-9 2,-2 4,-3 7,-3 2,0 4,2 7,6 3,4 4,7 4,9zm159 121c0,11 -4,23 -12,37 -8,14 -19,26 -33,35 -14,10 -31,15 -49,15 -18,0 -32,-5 -40,-15 -9,-10 -13,-22 -13,-37 0,-13 2,-29 7,-48 5,-20 11,-37 20,-52 1,-1 3,-5 7,-12 4,-7 8,-12 13,-16 5,-3 10,-5 15,-5 3,0 5,0 7,2 2,1 3,2 3,4 0,1 -1,2 -2,4 -2,2 -3,4 -4,5 -9,11 -16,22 -22,33 -8,13 -13,27 -18,41 -4,13 -6,28 -6,44 0,21 13,32 39,32 12,0 24,-4 34,-11 10,-7 19,-15 25,-25 6,-11 9,-20 9,-28 0,-10 -3,-18 -9,-25 -6,-7 -15,-14 -26,-22 -7,-5 -12,-10 -15,-13 -3,-3 -5,-6 -5,-8 0,-3 2,-6 7,-8 5,-2 10,-3 16,-3 4,0 6,0 7,1 1,0 2,1 2,2 0,0 -1,1 -2,3 -1,1 -1,2 -1,3 0,0 3,3 8,8 11,9 20,18 27,27 7,9 11,20 11,32zm68 -168c0,1 0,8 -1,21 -4,39 -6,79 -6,119 0,9 0,17 1,26 1,9 2,15 2,16 0,7 -3,10 -8,10 -2,0 -4,-2 -6,-7 -3,-4 -4,-10 -6,-17 -1,-7 -2,-15 -2,-23 0,-21 1,-65 3,-130 0,-8 2,-15 4,-22 3,-6 8,-10 14,-10 2,0 4,1 4,4 1,2 1,6 1,13zm14 256c0,4 -4,7 -13,7 -5,0 -10,-2 -13,-5 -3,-3 -5,-7 -7,-11 -1,-4 -2,-7 -2,-9 0,-3 2,-6 4,-8 3,-3 6,-4 9,-4 2,0 4,0 5,2 1,2 2,4 3,7 2,5 5,8 7,10 2,1 4,3 5,6 1,3 2,4 2,5z"/>
   </g>
   <path class="fil6 str0" d="M8899 1312l292 0 0 72 -220 0 0 130 220 0 0 72 -220 0 0 253 -72 0 0 -527zm371 0l292 0 0 72 -220 0 0 130 220 0 0 72 -220 0 0 181 220 0 0 72 -292 0 0 -527zm388 0l72 0 0 455 171 0 0 72 -243 0 0 -527zm313 0l72 0 0 527 -72 0 0 -527zm172 0l355 0 -251 455 246 0 0 72 -363 0 251 -455 -238 0 0 -72zm668 -21l389 400 0 -379 72 0 0 551 -389 -398 0 374 -72 0 0 -548zm765 1l249 547 -75 0 -61 -135 -224 0 -61 135 -74 0 246 -547zm1 165l-85 187 170 0 -85 -187zm240 -145l323 0 0 72 -126 0 0 455 -72 0 0 -455 -125 0 0 -72zm583 -20l248 547 -75 0 -61 -135 -224 0 -60 135 -75 0 247 -547zm0 165l-84 187 169 0 -85 -187zm325 -145l72 0 0 455 171 0 0 72 -243 0 0 -527z"/>
  </g>
  <g style="clip-path:url(#id0)">
   <image x="216" y="973" width="877" height="1078" xlink:href="1292-Natal-c58da247-d9cd-4b08-bfcd-6a853fbde2be_Images\1292-Natal-c58da247-d9cd-4b08-bfcd-6a853fbde2be_ImgID1.png"/>
  </g>
 </g>
</svg>
